<svg xmlns="http://www.w3.org/2000/svg" viewBox="0 0 100 100"><defs><style>.cls-1{fill:#4e2fb8;}.cls-2{fill:#fff;}.cls-3{fill:#57bcb9;}</style></defs><g id="Layer_2" data-name="Layer 2"><g id="Capa_1" data-name="Capa 1"><circle class="cls-1" cx="50" cy="50" r="50"/><path class="cls-2" d="M81.05,49.86,86.49,53l-5.44,3.14L72.7,51.32V41.69l8.35-4.82,5.06,2.92a37.73,37.73,0,0,1,.94,6.61L84,48.18V44.83l-2.91-1.68-2.91,1.68v3.35Z"/><path class="cls-3" d="M82.67,47.44V45.57l-1.62-.94-1.62.94v1.87l1.62.94Z"/><path class="cls-2" d="M27.53,41.69V54.4L22,51.22V44.7l-2.78-1.6-2.78,1.6v6.52L13.24,53A38.39,38.39,0,0,1,13,48.35a37.27,37.27,0,0,1,1-8.44l5.28-3Z"/><polygon class="cls-3" points="40.05 37 39.83 36.87 39.83 36.87 39.83 36.87 39.82 36.87 39.82 36.86 31.48 41.68 31.48 51.32 39.83 56.14 48.17 51.32 48.17 41.68 40.05 37"/><path class="cls-2" d="M63.14,25.69V38.48l-2.8-1.61L52,41.69v9.64l8.35,4.82,8.35-4.82V28.66Zm0,22.42-2.79,1.6-2.78-1.6V44.9l2.78-1.61,2.79,1.61Z"/><path class="cls-3" d="M53.81,63.22a1.61,1.61,0,0,0-1.67-1.4c-1.5,0-2.54.19-2.54,1s2.94.83,4,1.16a2,2,0,0,1,1.61,2.69c-.5,1.5-2,1.67-4.33,1.67a2.7,2.7,0,0,1-2.85-2.69h1.31s-.16,1.18,1.37,1.38,3,.3,3.22-.89c.26-1.57-5-.78-5.44-2.32-.39-1.31-.17-3,2.45-3.28s4.06.9,4.06,2.62Z"/><path class="cls-3" d="M41.15,69.37,44.05,71a2.19,2.19,0,0,0,3.28-1.9V60.82H46.15v8a1.2,1.2,0,0,1-1.79,1l-2-1.17V60.14l7.4-4.26,7.39,4.26v8.54L49.73,73,47.6,71.72l-1.39.56,3.52,2,8.57-5v-9.9l-8.57-5-8.58,5Z"/></g></g></svg>